<mxfile host="Electron" modified="2023-07-16T04:35:28.577Z" agent="Mozilla/5.0 (Windows NT 10.0; Win64; x64) AppleWebKit/537.36 (KHTML, like Gecko) draw.io/21.6.1 Chrome/112.0.5615.204 Electron/24.6.1 Safari/537.36" etag="2crMFQ9JP__FCuIiRyOz" version="21.6.1" type="device">
  <diagram name="Страница 1" id="I22Qz5GnwbFziwR25mVS">
    <mxGraphModel dx="864" dy="556" grid="1" gridSize="10" guides="1" tooltips="1" connect="1" arrows="1" fold="1" page="1" pageScale="1" pageWidth="827" pageHeight="1169" math="0" shadow="0">
      <root>
        <mxCell id="0" />
        <mxCell id="1" parent="0" />
        <mxCell id="mbRcVptj0azeR9f365Zc-3" value="" style="edgeStyle=orthogonalEdgeStyle;rounded=0;orthogonalLoop=1;jettySize=auto;html=1;" edge="1" parent="1" source="mbRcVptj0azeR9f365Zc-1" target="mbRcVptj0azeR9f365Zc-2">
          <mxGeometry relative="1" as="geometry" />
        </mxCell>
        <mxCell id="mbRcVptj0azeR9f365Zc-1" value="Start" style="rounded=1;whiteSpace=wrap;html=1;" vertex="1" parent="1">
          <mxGeometry x="294" y="20" width="120" height="60" as="geometry" />
        </mxCell>
        <mxCell id="mbRcVptj0azeR9f365Zc-5" value="" style="edgeStyle=orthogonalEdgeStyle;rounded=0;orthogonalLoop=1;jettySize=auto;html=1;" edge="1" parent="1" source="mbRcVptj0azeR9f365Zc-2" target="mbRcVptj0azeR9f365Zc-4">
          <mxGeometry relative="1" as="geometry" />
        </mxCell>
        <mxCell id="mbRcVptj0azeR9f365Zc-2" value="array[size]" style="shape=parallelogram;perimeter=parallelogramPerimeter;whiteSpace=wrap;html=1;fixedSize=1;rounded=1;arcSize=0;" vertex="1" parent="1">
          <mxGeometry x="294" y="110" width="120" height="60" as="geometry" />
        </mxCell>
        <mxCell id="mbRcVptj0azeR9f365Zc-7" value="" style="edgeStyle=orthogonalEdgeStyle;rounded=0;orthogonalLoop=1;jettySize=auto;html=1;" edge="1" parent="1" source="mbRcVptj0azeR9f365Zc-4" target="mbRcVptj0azeR9f365Zc-6">
          <mxGeometry relative="1" as="geometry" />
        </mxCell>
        <mxCell id="mbRcVptj0azeR9f365Zc-4" value="sum = 0&lt;br&gt;index = 0" style="whiteSpace=wrap;html=1;rounded=1;arcSize=0;" vertex="1" parent="1">
          <mxGeometry x="294" y="210" width="120" height="60" as="geometry" />
        </mxCell>
        <mxCell id="mbRcVptj0azeR9f365Zc-9" style="edgeStyle=orthogonalEdgeStyle;rounded=0;orthogonalLoop=1;jettySize=auto;html=1;" edge="1" parent="1" source="mbRcVptj0azeR9f365Zc-6" target="mbRcVptj0azeR9f365Zc-8">
          <mxGeometry relative="1" as="geometry" />
        </mxCell>
        <mxCell id="mbRcVptj0azeR9f365Zc-15" value="&lt;font style=&quot;font-size: 18px;&quot;&gt;False&lt;/font&gt;" style="edgeLabel;html=1;align=center;verticalAlign=middle;resizable=0;points=[];" vertex="1" connectable="0" parent="mbRcVptj0azeR9f365Zc-9">
          <mxGeometry x="-0.0959" y="-2" relative="1" as="geometry">
            <mxPoint as="offset" />
          </mxGeometry>
        </mxCell>
        <mxCell id="mbRcVptj0azeR9f365Zc-13" value="" style="edgeStyle=orthogonalEdgeStyle;rounded=0;orthogonalLoop=1;jettySize=auto;html=1;" edge="1" parent="1" source="mbRcVptj0azeR9f365Zc-6" target="mbRcVptj0azeR9f365Zc-12">
          <mxGeometry relative="1" as="geometry" />
        </mxCell>
        <mxCell id="mbRcVptj0azeR9f365Zc-16" value="&lt;font style=&quot;font-size: 18px;&quot;&gt;True&lt;/font&gt;" style="edgeLabel;html=1;align=center;verticalAlign=middle;resizable=0;points=[];" vertex="1" connectable="0" parent="mbRcVptj0azeR9f365Zc-13">
          <mxGeometry x="-0.15" relative="1" as="geometry">
            <mxPoint as="offset" />
          </mxGeometry>
        </mxCell>
        <mxCell id="mbRcVptj0azeR9f365Zc-6" value="index &amp;lt; size" style="rhombus;whiteSpace=wrap;html=1;rounded=1;arcSize=0;" vertex="1" parent="1">
          <mxGeometry x="314" y="310" width="80" height="80" as="geometry" />
        </mxCell>
        <mxCell id="mbRcVptj0azeR9f365Zc-11" value="" style="edgeStyle=orthogonalEdgeStyle;rounded=0;orthogonalLoop=1;jettySize=auto;html=1;" edge="1" parent="1" source="mbRcVptj0azeR9f365Zc-8" target="mbRcVptj0azeR9f365Zc-10">
          <mxGeometry relative="1" as="geometry" />
        </mxCell>
        <mxCell id="mbRcVptj0azeR9f365Zc-8" value="sum / size" style="shape=document;whiteSpace=wrap;html=1;boundedLbl=1;" vertex="1" parent="1">
          <mxGeometry x="540" y="310" width="120" height="80" as="geometry" />
        </mxCell>
        <mxCell id="mbRcVptj0azeR9f365Zc-10" value="Finish" style="rounded=1;whiteSpace=wrap;html=1;" vertex="1" parent="1">
          <mxGeometry x="540" y="480" width="120" height="60" as="geometry" />
        </mxCell>
        <mxCell id="mbRcVptj0azeR9f365Zc-14" style="edgeStyle=orthogonalEdgeStyle;rounded=0;orthogonalLoop=1;jettySize=auto;html=1;entryX=0;entryY=0.5;entryDx=0;entryDy=0;exitX=0.5;exitY=1;exitDx=0;exitDy=0;" edge="1" parent="1" source="mbRcVptj0azeR9f365Zc-12" target="mbRcVptj0azeR9f365Zc-6">
          <mxGeometry relative="1" as="geometry">
            <Array as="points">
              <mxPoint x="354" y="520" />
              <mxPoint x="220" y="520" />
              <mxPoint x="220" y="350" />
            </Array>
          </mxGeometry>
        </mxCell>
        <mxCell id="mbRcVptj0azeR9f365Zc-12" value="sum += array[index]&lt;br&gt;index += 1" style="whiteSpace=wrap;html=1;rounded=1;arcSize=0;" vertex="1" parent="1">
          <mxGeometry x="294" y="430" width="120" height="60" as="geometry" />
        </mxCell>
        <mxCell id="mbRcVptj0azeR9f365Zc-17" value="4. *Найти среднее арифметическое&lt;br&gt;&amp;nbsp;среди всех элементов массива. &lt;br/&gt;" style="text;html=1;align=center;verticalAlign=middle;resizable=0;points=[];autosize=1;strokeColor=none;fillColor=none;" vertex="1" parent="1">
          <mxGeometry x="520" y="40" width="220" height="40" as="geometry" />
        </mxCell>
      </root>
    </mxGraphModel>
  </diagram>
</mxfile>
